<?xml version="1.0" encoding="UTF-8" standalone="no"?><svg xmlns="http://www.w3.org/2000/svg" xmlns:xlink="http://www.w3.org/1999/xlink" contentScriptType="application/ecmascript" contentStyleType="text/css" height="316px" preserveAspectRatio="none" style="width:463px;height:316px;" version="1.1" viewBox="0 0 463 316" width="463px" zoomAndPan="magnify"><defs><filter height="300%" id="f12mb3u1xyae1g" width="300%" x="-1" y="-1"><feGaussianBlur result="blurOut" stdDeviation="2.0"/><feColorMatrix in="blurOut" result="blurOut2" type="matrix" values="0 0 0 0 0 0 0 0 0 0 0 0 0 0 0 0 0 0 .4 0"/><feOffset dx="4.0" dy="4.0" in="blurOut2" result="blurOut3"/><feBlend in="SourceGraphic" in2="blurOut3" mode="normal"/></filter></defs><g><!--class User--><rect fill="#FEFECE" filter="url(#f12mb3u1xyae1g)" height="99.2188" id="User" style="stroke: #A80036; stroke-width: 1.5;" width="112" x="6" y="21"/><ellipse cx="43.95" cy="37" fill="#ADD1B2" rx="11" ry="11" style="stroke: #A80036; stroke-width: 1.0;"/><path d="M46.2938,32.6719 L46.4656,32.75 C46.6844,32.4375 46.8875,32.3438 47.1844,32.3438 C47.4813,32.3438 47.7625,32.4844 47.9188,32.75 C48.0125,32.9063 48.0281,33.0313 48.0281,33.4688 L48.0281,34.8906 C48.0281,35.3125 47.9969,35.5 47.8875,35.6563 C47.7156,35.875 47.45,36.0156 47.1844,36.0156 C46.9656,36.0156 46.7313,35.9063 46.5906,35.7656 C46.45,35.6406 46.4188,35.5156 46.3563,35.1094 C46.2625,34.7031 46.0906,34.4844 45.6063,34.2031 C45.1375,33.9531 44.5281,33.7969 43.95,33.7969 C42.2156,33.7969 40.9656,35.1094 40.9656,36.8906 L40.9656,37.9844 C40.9656,39.6875 42.2625,40.7813 44.3094,40.7813 C45.075,40.7813 45.7625,40.6563 46.1844,40.3906 C46.3719,40.2969 46.3719,40.2969 46.825,39.8125 C47.0125,39.625 47.2156,39.5469 47.4344,39.5469 C47.9031,39.5469 48.2938,39.9375 48.2938,40.3906 C48.2938,40.7813 47.9656,41.2344 47.3875,41.6406 C46.6375,42.1875 45.4813,42.4844 44.2625,42.4844 C41.3719,42.4844 39.2625,40.5938 39.2625,38.0156 L39.2625,36.8906 C39.2625,34.1719 41.2625,32.0938 43.8875,32.0938 C44.7625,32.0938 45.3563,32.2344 46.2938,32.6719 Z "/><text fill="#000000" font-family="sans-serif" font-size="12" lengthAdjust="spacingAndGlyphs" textLength="29" x="63.05" y="41.1543">User</text><line style="stroke: #A80036; stroke-width: 1.5;" x1="7" x2="117" y1="53" y2="53"/><text fill="#000000" font-family="sans-serif" font-size="11" lengthAdjust="spacingAndGlyphs" textLength="52" x="12" y="67.2104">id: String</text><text fill="#000000" font-family="sans-serif" font-size="11" lengthAdjust="spacingAndGlyphs" textLength="100" x="12" y="80.0151">username: String</text><text fill="#000000" font-family="sans-serif" font-size="11" lengthAdjust="spacingAndGlyphs" textLength="70" x="12" y="92.8198">hash: String</text><text fill="#000000" font-family="sans-serif" font-size="11" lengthAdjust="spacingAndGlyphs" textLength="64" x="12" y="105.6245">role: String</text><line style="stroke: #A80036; stroke-width: 1.5;" x1="7" x2="117" y1="112.2188" y2="112.2188"/><!--class Product--><rect fill="#FEFECE" filter="url(#f12mb3u1xyae1g)" height="124.8281" id="Product" style="stroke: #A80036; stroke-width: 1.5;" width="124" x="153" y="8"/><ellipse cx="187.35" cy="24" fill="#ADD1B2" rx="11" ry="11" style="stroke: #A80036; stroke-width: 1.0;"/><path d="M189.6938,19.6719 L189.8656,19.75 C190.0844,19.4375 190.2875,19.3438 190.5844,19.3438 C190.8813,19.3438 191.1625,19.4844 191.3188,19.75 C191.4125,19.9063 191.4281,20.0313 191.4281,20.4688 L191.4281,21.8906 C191.4281,22.3125 191.3969,22.5 191.2875,22.6563 C191.1156,22.875 190.85,23.0156 190.5844,23.0156 C190.3656,23.0156 190.1313,22.9063 189.9906,22.7656 C189.85,22.6406 189.8188,22.5156 189.7563,22.1094 C189.6625,21.7031 189.4906,21.4844 189.0063,21.2031 C188.5375,20.9531 187.9281,20.7969 187.35,20.7969 C185.6156,20.7969 184.3656,22.1094 184.3656,23.8906 L184.3656,24.9844 C184.3656,26.6875 185.6625,27.7813 187.7094,27.7813 C188.475,27.7813 189.1625,27.6563 189.5844,27.3906 C189.7719,27.2969 189.7719,27.2969 190.225,26.8125 C190.4125,26.625 190.6156,26.5469 190.8344,26.5469 C191.3031,26.5469 191.6938,26.9375 191.6938,27.3906 C191.6938,27.7813 191.3656,28.2344 190.7875,28.6406 C190.0375,29.1875 188.8813,29.4844 187.6625,29.4844 C184.7719,29.4844 182.6625,27.5938 182.6625,25.0156 L182.6625,23.8906 C182.6625,21.1719 184.6625,19.0938 187.2875,19.0938 C188.1625,19.0938 188.7563,19.2344 189.6938,19.6719 Z "/><text fill="#000000" font-family="sans-serif" font-size="12" lengthAdjust="spacingAndGlyphs" textLength="49" x="205.65" y="28.1543">Product</text><line style="stroke: #A80036; stroke-width: 1.5;" x1="154" x2="276" y1="40" y2="40"/><text fill="#000000" font-family="sans-serif" font-size="11" lengthAdjust="spacingAndGlyphs" textLength="52" x="159" y="54.2104">id: String</text><text fill="#000000" font-family="sans-serif" font-size="11" lengthAdjust="spacingAndGlyphs" textLength="74" x="159" y="67.0151">name: String</text><text fill="#000000" font-family="sans-serif" font-size="11" lengthAdjust="spacingAndGlyphs" textLength="105" x="159" y="79.8198">description: String</text><text fill="#000000" font-family="sans-serif" font-size="11" lengthAdjust="spacingAndGlyphs" textLength="91" x="159" y="92.6245">category: String</text><text fill="#000000" font-family="sans-serif" font-size="11" lengthAdjust="spacingAndGlyphs" textLength="75" x="159" y="105.4292">tags: [String]</text><text fill="#000000" font-family="sans-serif" font-size="11" lengthAdjust="spacingAndGlyphs" textLength="112" x="159" y="118.2339">withdrawn: Boolean</text><line style="stroke: #A80036; stroke-width: 1.5;" x1="154" x2="276" y1="124.8281" y2="124.8281"/><!--class Shop--><rect fill="#FEFECE" filter="url(#f12mb3u1xyae1g)" height="124.8281" id="Shop" style="stroke: #A80036; stroke-width: 1.5;" width="140" x="312" y="8"/><ellipse cx="361.75" cy="24" fill="#ADD1B2" rx="11" ry="11" style="stroke: #A80036; stroke-width: 1.0;"/><path d="M364.0938,19.6719 L364.2656,19.75 C364.4844,19.4375 364.6875,19.3438 364.9844,19.3438 C365.2813,19.3438 365.5625,19.4844 365.7188,19.75 C365.8125,19.9063 365.8281,20.0313 365.8281,20.4688 L365.8281,21.8906 C365.8281,22.3125 365.7969,22.5 365.6875,22.6563 C365.5156,22.875 365.25,23.0156 364.9844,23.0156 C364.7656,23.0156 364.5313,22.9063 364.3906,22.7656 C364.25,22.6406 364.2188,22.5156 364.1563,22.1094 C364.0625,21.7031 363.8906,21.4844 363.4063,21.2031 C362.9375,20.9531 362.3281,20.7969 361.75,20.7969 C360.0156,20.7969 358.7656,22.1094 358.7656,23.8906 L358.7656,24.9844 C358.7656,26.6875 360.0625,27.7813 362.1094,27.7813 C362.875,27.7813 363.5625,27.6563 363.9844,27.3906 C364.1719,27.2969 364.1719,27.2969 364.625,26.8125 C364.8125,26.625 365.0156,26.5469 365.2344,26.5469 C365.7031,26.5469 366.0938,26.9375 366.0938,27.3906 C366.0938,27.7813 365.7656,28.2344 365.1875,28.6406 C364.4375,29.1875 363.2813,29.4844 362.0625,29.4844 C359.1719,29.4844 357.0625,27.5938 357.0625,25.0156 L357.0625,23.8906 C357.0625,21.1719 359.0625,19.0938 361.6875,19.0938 C362.5625,19.0938 363.1563,19.2344 364.0938,19.6719 Z "/><text fill="#000000" font-family="sans-serif" font-size="12" lengthAdjust="spacingAndGlyphs" textLength="32" x="382.25" y="28.1543">Shop</text><line style="stroke: #A80036; stroke-width: 1.5;" x1="313" x2="451" y1="40" y2="40"/><text fill="#000000" font-family="sans-serif" font-size="11" lengthAdjust="spacingAndGlyphs" textLength="52" x="318" y="54.2104">id: String</text><text fill="#000000" font-family="sans-serif" font-size="11" lengthAdjust="spacingAndGlyphs" textLength="74" x="318" y="67.0151">name: String</text><text fill="#000000" font-family="sans-serif" font-size="11" lengthAdjust="spacingAndGlyphs" textLength="89" x="318" y="79.8198">address: String</text><text fill="#000000" font-family="sans-serif" font-size="11" lengthAdjust="spacingAndGlyphs" textLength="128" x="318" y="92.6245">coordinates: [Number]</text><text fill="#000000" font-family="sans-serif" font-size="11" lengthAdjust="spacingAndGlyphs" textLength="75" x="318" y="105.4292">tags: [String]</text><text fill="#000000" font-family="sans-serif" font-size="11" lengthAdjust="spacingAndGlyphs" textLength="112" x="318" y="118.2339">withdrawn: Boolean</text><line style="stroke: #A80036; stroke-width: 1.5;" x1="313" x2="451" y1="124.8281" y2="124.8281"/><!--class Price--><rect fill="#FEFECE" filter="url(#f12mb3u1xyae1g)" height="112.0234" id="Price" style="stroke: #A80036; stroke-width: 1.5;" width="107" x="244.5" y="193"/><ellipse cx="279.3" cy="209" fill="#ADD1B2" rx="11" ry="11" style="stroke: #A80036; stroke-width: 1.0;"/><path d="M281.6438,204.6719 L281.8156,204.75 C282.0344,204.4375 282.2375,204.3438 282.5344,204.3438 C282.8313,204.3438 283.1125,204.4844 283.2688,204.75 C283.3625,204.9063 283.3781,205.0313 283.3781,205.4688 L283.3781,206.8906 C283.3781,207.3125 283.3469,207.5 283.2375,207.6563 C283.0656,207.875 282.8,208.0156 282.5344,208.0156 C282.3156,208.0156 282.0813,207.9063 281.9406,207.7656 C281.8,207.6406 281.7688,207.5156 281.7063,207.1094 C281.6125,206.7031 281.4406,206.4844 280.9563,206.2031 C280.4875,205.9531 279.8781,205.7969 279.3,205.7969 C277.5656,205.7969 276.3156,207.1094 276.3156,208.8906 L276.3156,209.9844 C276.3156,211.6875 277.6125,212.7813 279.6594,212.7813 C280.425,212.7813 281.1125,212.6563 281.5344,212.3906 C281.7219,212.2969 281.7219,212.2969 282.175,211.8125 C282.3625,211.625 282.5656,211.5469 282.7844,211.5469 C283.2531,211.5469 283.6438,211.9375 283.6438,212.3906 C283.6438,212.7813 283.3156,213.2344 282.7375,213.6406 C281.9875,214.1875 280.8313,214.4844 279.6125,214.4844 C276.7219,214.4844 274.6125,212.5938 274.6125,210.0156 L274.6125,208.8906 C274.6125,206.1719 276.6125,204.0938 279.2375,204.0938 C280.1125,204.0938 280.7063,204.2344 281.6438,204.6719 Z "/><text fill="#000000" font-family="sans-serif" font-size="12" lengthAdjust="spacingAndGlyphs" textLength="31" x="297.7" y="213.1543">Price</text><line style="stroke: #A80036; stroke-width: 1.5;" x1="245.5" x2="350.5" y1="225" y2="225"/><text fill="#000000" font-family="sans-serif" font-size="11" lengthAdjust="spacingAndGlyphs" textLength="52" x="250.5" y="239.2104">id: String</text><text fill="#000000" font-family="sans-serif" font-size="11" lengthAdjust="spacingAndGlyphs" textLength="81" x="250.5" y="252.0151">price: Number</text><text fill="#000000" font-family="sans-serif" font-size="11" lengthAdjust="spacingAndGlyphs" textLength="59" x="250.5" y="264.8198">date: Date</text><text fill="#000000" font-family="sans-serif" font-size="11" lengthAdjust="spacingAndGlyphs" textLength="95" x="250.5" y="277.6245">productId: String</text><text fill="#000000" font-family="sans-serif" font-size="11" lengthAdjust="spacingAndGlyphs" textLength="80" x="250.5" y="290.4292">shopId: String</text><line style="stroke: #A80036; stroke-width: 1.5;" x1="245.5" x2="350.5" y1="297.0234" y2="297.0234"/><!--link Product to Price--><path d="M246.181,137.807 C254.701,155.924 263.84,175.359 272.035,192.786 " fill="none" id="Product-Price" style="stroke: #A80036; stroke-width: 1.0; stroke-dasharray: 7.0,7.0;"/><polygon fill="#A80036" points="244.029,133.231,244.241,143.0776,246.1576,137.7553,251.4799,139.6719,244.029,133.231" style="stroke: #A80036; stroke-width: 1.0;"/><!--link Shop to Price--><path d="M350.443,137.807 C341.821,155.924 332.571,175.359 324.278,192.786 " fill="none" id="Shop-Price" style="stroke: #A80036; stroke-width: 1.0; stroke-dasharray: 7.0,7.0;"/><polygon fill="#A80036" points="352.621,133.231,345.1414,139.6385,350.4722,137.7457,352.365,143.0765,352.621,133.231" style="stroke: #A80036; stroke-width: 1.0;"/><!--
@startuml
class User {
    id: String
    username: String
    hash: String
    role: String
}

class Product {
    id: String
    name: String
    description: String
    category: String
    tags: [String]
    withdrawn: Boolean
}

class Shop {
    id: String
    name: String
    address: String
    coordinates: [Number]
    tags: [String]
    withdrawn: Boolean
}

class Price {
    id: String
    price: Number
    date: Date
    productId: String
    shopId: String
}

Product <.. Price
Shop <.. Price
@enduml

PlantUML version 1.2019.01(Sat Feb 09 15:32:04 UTC 2019)
(GPL source distribution)
Java Runtime: Java(TM) SE Runtime Environment
JVM: Java HotSpot(TM) 64-Bit Server VM
Java Version: 1.7.0_25-b15
Operating System: Linux
Default Encoding: UTF-8
Language: en
Country: US
--></g></svg>